<?xml version="1.0" standalone="no"?>
<!DOCTYPE svg PUBLIC "-//W3C//DTD SVG 20010904//EN"
 "http://www.w3.org/TR/2001/REC-SVG-20010904/DTD/svg10.dtd">
<svg version="1.0" xmlns="http://www.w3.org/2000/svg"
 width="265.000000pt" height="265.000000pt" viewBox="0 0 265.000000 265.000000"
 preserveAspectRatio="xMidYMid meet">
<metadata>
Created by potrace 1.14, written by Peter Selinger 2001-2017
</metadata>
<g transform="translate(0.000000,265.000000) scale(0.100000,-0.100000)"
fill="#000000" stroke="none">
<path d="M1000 2110 c0 -29 -1 -29 -62 -32 -63 -3 -63 -3 -66 -35 l-3 -33 -65
0 -64 0 0 -35 c0 -33 -2 -35 -35 -35 -32 0 -35 -2 -35 -29 0 -26 -4 -30 -32
-33 -29 -3 -33 -7 -36 -35 -3 -29 -7 -33 -32 -33 -25 0 -29 -4 -32 -32 -3 -29
-7 -33 -35 -36 l-33 -3 0 -65 0 -64 -35 0 -35 0 0 -335 0 -335 35 0 35 0 0
-99 0 -100 33 -3 32 -3 3 -67 c3 -68 3 -68 32 -68 27 0 30 -3 30 -30 0 -28 3
-30 35 -30 19 0 34 -3 34 -7 -1 -5 -1 -20 0 -35 l1 -28 564 0 c610 0 576 -3
576 51 0 14 7 19 30 19 28 0 30 -3 30 -35 0 -33 2 -35 35 -35 33 0 35 2 35 35
0 32 2 35 30 35 29 0 29 1 32 62 3 63 3 63 36 66 l32 3 0 299 0 299 -32 3 -33
3 0 65 0 65 30 0 c26 0 30 -4 33 -32 3 -28 7 -32 35 -35 28 -3 32 -7 35 -35 3
-29 7 -33 33 -33 25 0 29 -4 29 -29 0 -26 4 -30 33 -33 28 -3 32 -7 35 -35 3
-32 5 -33 50 -34 26 -1 55 -1 65 0 13 2 17 -5 17 -33 l0 -36 70 0 70 0 0 69 0
70 -32 3 -33 3 -3 127 -3 127 -32 3 -32 3 -3 133 -3 132 -29 0 c-29 0 -29 0
-32 68 l-3 67 -32 3 c-29 3 -33 7 -33 33 0 27 -3 29 -35 29 -33 0 -35 2 -35
35 l0 35 -64 0 -65 0 -3 33 c-3 32 -3 32 -65 35 l-62 3 -3 -33 c-3 -29 -7 -33
-35 -36 -30 -3 -33 -6 -33 -38 l0 -34 -64 0 -65 0 -3 33 c-3 32 -3 32 -65 35
-58 3 -63 5 -63 25 0 36 -20 47 -82 47 -58 0 -58 0 -58 30 l0 30 -235 0 -235
0 0 -30z"/>
<path d="M438 473 c17 -2 47 -2 65 0 17 2 3 4 -33 4 -36 0 -50 -2 -32 -4z"/>
</g>
</svg>
